<?xml version="1.0" encoding="UTF-8" standalone="no"?>
<!DOCTYPE svg PUBLIC "-//W3C//DTD SVG 1.1//EN" "http://www.w3.org/Graphics/SVG/1.1/DTD/svg11.dtd">
<svg width="100%" height="100%" viewBox="0 0 48 48" version="1.1" xmlns="http://www.w3.org/2000/svg" xmlns:xlink="http://www.w3.org/1999/xlink" xml:space="preserve" xmlns:serif="http://www.serif.com/" style="fill-rule:evenodd;clip-rule:evenodd;stroke-linejoin:round;stroke-miterlimit:2;">
    <g id="_18-Password">
        <path d="M35,43L35,47L13,47L13,43L35,43Z" style="fill:rgb(208,215,223);fill-rule:nonzero;"/>
        <path d="M30,37L32,43L16,43L18,37L30,37Z" style="fill:rgb(164,176,192);fill-rule:nonzero;"/>
        <path d="M47,4L47,29L1,29L1,4C1,2.354 2.354,1 4,1L44,1C45.646,1 47,2.354 47,4Z" style="fill:url(#_Linear1);fill-rule:nonzero;"/>
        <path d="M47,29L47,34C47,35.646 45.646,37 44,37L4,37C2.354,37 1,35.646 1,34L1,29L47,29Z" style="fill:rgb(208,215,223);fill-rule:nonzero;"/>
        <path d="M32,9C32,7.896 31.104,7 30,7L18,7C16.896,7 16,7.896 16,9L16,19C16,20.104 16.896,21 18,21L30,21C31.104,21 32,20.104 32,19L32,9Z" style="fill:rgb(44,182,125);"/>
        <path d="M38,17C38,16.448 37.552,16 37,16L11,16C10.448,16 10,16.448 10,17L10,23C10,23.552 10.448,24 11,24L37,24C37.552,24 38,23.552 38,23L38,17Z" style="fill:rgb(241,242,242);"/>
        <path d="M43,29C43,28.451 42.549,28 42,28L6,28C5.451,28 5,28.451 5,29C5,29.549 5.451,30 6,30L42,30C42.549,30 43,29.549 43,29Z" style="fill:rgb(71,76,84);fill-rule:nonzero;"/>
        <path d="M44,0L33,0C32.451,0 32,0.451 32,1C32,1.549 32.451,2 33,2L44,2C45.097,2 46,2.903 46,4L46,34C46,35.097 45.097,36 44,36L22,36C21.451,36 21,36.451 21,37C21,37.549 21.451,38 22,38L29.28,38L31.052,43.316C31.188,43.723 31.571,44 32,44L34,44L34,46L14,46L14,44L16,44C16.429,44 16.813,43.723 16.949,43.316L18.949,37.316C18.983,37.214 19,37.107 19,37C19,36.451 18.549,36 18,36L4,36C2.903,36 2,35.097 2,34L2,4C2,2.903 2.903,2 4,2L15,2C15.549,2 16,1.549 16,1C16,0.451 15.549,0 15,0L4,0C1.806,0 -0,1.806 0,4L0,34C0,36.194 1.806,38 4,38L16.613,38L15.279,42L13,42C12.451,42 12,42.451 12,43L12,46L11,46C10.451,46 10,46.451 10,47C10,47.549 10.451,48 11,48L37,48C37.549,48 38,47.549 38,47C38,46.451 37.549,46 37,46L36,46L36,43C36,42.451 35.549,42 35,42L32.721,42L31.388,38L44,38C46.194,38 48,36.194 48,34L48,4C48,1.806 46.194,0 44,0Z" style="fill:rgb(71,76,84);fill-rule:nonzero;"/>
        <path d="M20,44L28,44C28.549,44 29,43.549 29,43C29,42.451 28.549,42 28,42L20,42C19.451,42 19,42.451 19,43C19,43.549 19.451,44 20,44Z" style="fill:rgb(71,76,84);fill-rule:nonzero;"/>
        <path d="M17,19L16,19C15.451,19 15,19.451 15,20C15,20.549 15.451,21 16,21L17,21C17.549,21 18,20.549 18,20C18,19.451 17.549,19 17,19Z" style="fill:rgb(71,76,84);fill-rule:nonzero;"/>
        <path d="M22,19L21,19C20.451,19 20,19.451 20,20C20,20.549 20.451,21 21,21L22,21C22.549,21 23,20.549 23,20C23,19.451 22.549,19 22,19Z" style="fill:rgb(71,76,84);fill-rule:nonzero;"/>
        <path d="M27,19L26,19C25.451,19 25,19.451 25,20C25,20.549 25.451,21 26,21L27,21C27.549,21 28,20.549 28,20C28,19.451 27.549,19 27,19Z" style="fill:rgb(71,76,84);fill-rule:nonzero;"/>
        <path d="M31,19C30.451,19 30,19.451 30,20C30,20.549 30.451,21 31,21L32,21C32.549,21 33,20.549 33,20C33,19.451 32.549,19 32,19L31,19Z" style="fill:rgb(71,76,84);fill-rule:nonzero;"/>
        <path d="M15,9L15,15L11,15C9.903,15 9,15.903 9,17L9,23C9,24.097 9.903,25 11,25L37,25C38.097,25 39,24.097 39,23L39,17C39,15.903 38.097,15 37,15L33,15L33,9C33,7.354 31.646,6 30,6L29,6L29,3C29,2.986 29,2.972 29,2.959C29,1.884 28.116,1 27.041,1C27.028,1 27.014,1 27,1L21,1C20.986,1 20.972,1 20.959,1C19.884,1 19,1.884 19,2.959C19,2.972 19,2.986 19,3L19,6L18,6C16.354,6 15,7.354 15,9ZM37,23L11,23L11,17L37,17L37,23ZM18,8L24,8C24.549,8 25,7.549 25,7C25,6.451 24.549,6 24,6L21,6L21,3L27,3L27,7C27,7.549 27.451,8 28,8L30,8C30.549,8 31,8.451 31,9L31,15L17,15L17,9C17,8.451 17.451,8 18,8Z" style="fill:rgb(71,76,84);fill-rule:nonzero;"/>
        <path d="M22,13L26,13C26.549,13 27,12.549 27,12C27,11.451 26.549,11 26,11L22,11C21.451,11 21,11.451 21,12C21,12.549 21.451,13 22,13Z" style="fill:rgb(71,76,84);fill-rule:nonzero;"/>
    </g>
    <defs>
        <linearGradient id="_Linear1" x1="0" y1="0" x2="1" y2="0" gradientUnits="userSpaceOnUse" gradientTransform="matrix(1.71453e-15,28.0004,-17.0437,1.04363e-15,24,0.999562)"><stop offset="0" style="stop-color:rgb(187,164,245);stop-opacity:1"/><stop offset="1" style="stop-color:rgb(127,90,240);stop-opacity:1"/></linearGradient>
    </defs>
</svg>
